<?xml version="1.0" encoding="UTF-8"?>
<!DOCTYPE svg PUBLIC "-//W3C//DTD SVG 1.1//EN" "http://www.w3.org/Graphics/SVG/1.1/DTD/svg11.dtd">
<!-- Creator: CorelDRAW -->
<svg xmlns="http://www.w3.org/2000/svg" xml:space="preserve" width="600mm" height="450mm" style="shape-rendering:geometricPrecision; text-rendering:geometricPrecision; image-rendering:optimizeQuality; fill-rule:evenodd; clip-rule:evenodd"
viewBox="0 0 600 450"
 xmlns:xlink="http://www.w3.org/1999/xlink">
 <defs>
  <style type="text/css">
   <![CDATA[
    .str1 {stroke:#E77817;stroke-width:0.0762}
    .str0 {stroke:#E25920;stroke-width:0.0762;stroke-linejoin:bevel}
    .fil0 {fill:none}
    .fil1 {fill:black}
   ]]>
  </style>
 </defs>
 <g id="VISIBLE">
  <metadata id="CorelCorpID_0Corel-Layer"/>
  <path class="fil0 str0" d="M227.167 12.1737c0,-0.9333 -0.7566,-1.6898 -1.6898,-1.6898 -0.9333,0 -1.6898,0.7565 -1.6898,1.6898 0,0.9332 0.7565,1.6898 1.6898,1.6898 0.9332,0 1.6898,-0.7566 1.6898,-1.6898z"/>
  <path class="fil0 str0" d="M218.315 46.2319c0,0.5304 0.2107,1.0391 0.5858,1.4142 0.375,0.3751 0.8837,0.5858 1.4142,0.5858"/>
  <path class="fil0 str0" d="M252.757 7.9366c0,-0.5305 -0.2107,-1.0392 -0.5858,-1.4142 -0.3751,-0.3751 -0.8838,-0.5858 -1.4142,-0.5858"/>
  <path class="fil0 str0" d="M232.732 16.6048c0,-0.8729 -0.7076,-1.5805 -1.5805,-1.5805 -0.8728,0 -1.5804,0.7076 -1.5804,1.5805 0,0.8728 0.7076,1.5804 1.5804,1.5804 0.8729,0 1.5805,-0.7076 1.5805,-1.5804z"/>
  <path class="fil0 str0" d="M247.155 12.1737c0,-0.9333 -0.7565,-1.6898 -1.6898,-1.6898 -0.9332,0 -1.6898,0.7565 -1.6898,1.6898 0,0.9332 0.7566,1.6898 1.6898,1.6898 0.9333,0 1.6898,-0.7566 1.6898,-1.6898z"/>
  <path class="fil0 str0" d="M220.315 5.9366c-0.5305,0 -1.0392,0.2107 -1.4142,0.5858 -0.3751,0.375 -0.5858,0.8837 -0.5858,1.4142"/>
  <path class="fil0 str0" d="M250.757 48.2319c1.1045,0 2,-0.8954 2,-2"/>
  <path class="fil0 str0" d="M250.757 48.2319l0 0m0 0l-30.4428 0"/>
  <path class="fil0 str0" d="M250.757 5.9366l0 0m-30.4428 0l30.4428 0"/>
  <path class="fil0 str0" d="M252.757 7.9366l0 0m0 0l0 38.2953"/>
  <path class="fil0 str0" d="M218.315 7.9366l0 0m0 38.2953l0 -38.2953"/>
  <path class="fil0 str0" d="M109.854 7.7108c0,-0.5305 -0.2108,-1.0392 -0.5858,-1.4143 -0.3751,-0.375 -0.8838,-0.5857 -1.4142,-0.5857"/>
  <path class="fil0 str0" d="M106.923 8.835l0 0m-7.9746 0l7.9746 0"/>
  <path class="fil0 str0" d="M107.854 47.982c1.1045,0 1.9999,-0.8954 2,-2"/>
  <path class="fil0 str0" d="M86.0968 5.7108l0 0m-8.6854 0l8.6854 0"/>
  <path class="fil0 str0" d="M77.4114 5.7108c-0.5304,0 -1.0391,0.2107 -1.4142,0.5857 -0.375,0.3751 -0.5858,0.8838 -0.5858,1.4143"/>
  <path class="fil0 str0" d="M107.854 47.982l0 0m0 0l-30.4429 0"/>
  <path class="fil0 str0" d="M78.5919 8.835l0 0m0 36.1945l0 -36.1945"/>
  <path class="fil0 str0" d="M107.854 5.7108l0 0m-8.9055 0l8.9055 0"/>
  <path class="fil0 str0" d="M86.0968 8.835l0 0m-7.5049 0l7.5049 0"/>
  <path class="fil0 str0" d="M98.9488 5.7108l0 0m0 0l0 3.1242"/>
  <path class="fil0 str0" d="M86.0968 5.7108l0 0m0 3.1242l0 -3.1242"/>
  <path class="fil0 str0" d="M106.923 45.0295l0 0m0 0l-28.3315 0"/>
  <path class="fil0 str0" d="M109.854 7.7108l0 0m0 0l0 38.2712"/>
  <path class="fil0 str0" d="M106.923 8.835l0 0m0 0l0 36.1945"/>
  <path class="fil0 str0" d="M75.4114 7.7108l0 0m0 38.2712l0 -38.2712"/>
  <path class="fil0 str0" d="M75.4114 45.982c0,0.5304 0.2108,1.0391 0.5858,1.4142 0.3751,0.3751 0.8838,0.5858 1.4142,0.5858"/>
  <line class="fil0 str0" x1="154.06" y1="40.2291" x2="150.425" y2= "37.4603" />
  <path class="fil0 str0" d="M154.06 40.2291c-0.818,0.2606 -1.3111,1.0927 -1.1469,1.9354 0.1643,0.8426 0.9337,1.4286 1.7897,1.363 0.856,-0.0656 1.5271,-0.7621 1.5609,-1.6199"/>
  <path class="fil0 str0" d="M179.702 47.9679l0 0m0 0l-30.4428 0"/>
  <path class="fil0 str0" d="M181.702 7.6967c0,-0.5304 -0.2107,-1.0391 -0.5858,-1.4142 -0.375,-0.3751 -0.8837,-0.5858 -1.4142,-0.5858"/>
  <path class="fil0 str0" d="M147.26 7.6967l0 0m0 38.2712l0 -38.2712"/>
  <path class="fil0 str0" d="M178.797 8.7591l0 0m-28.372 0l28.372 0"/>
  <path class="fil0 str0" d="M172.861 42.0119c0.0842,0.8238 0.7558,1.4636 1.5827,1.5079 0.8269,0.0442 1.5629,-0.5202 1.7346,-1.3302 0.1717,-0.8101 -0.2719,-1.6246 -1.0457,-1.9197"/>
  <path class="fil0 str0" d="M147.26 45.9679c0,0.5305 0.2107,1.0392 0.5858,1.4143 0.3751,0.375 0.8838,0.5857 1.4142,0.5857"/>
  <line class="fil0 str0" x1="160.447" y1="45.093" x2="156.264" y2= "41.9076" />
  <path class="fil0 str0" d="M150.425 8.7591l0 0m0 28.7012l0 -28.7012"/>
  <path class="fil0 str0" d="M181.702 7.6967l0 0m0 0l0 38.2712"/>
  <path class="fil0 str0" d="M179.702 5.6967l0 0m-30.4428 0l30.4428 0"/>
  <path class="fil0 str0" d="M178.797 37.4603l0 0m0 0l-3.664 2.8096"/>
  <path class="fil0 str0" d="M179.702 47.9679c1.1046,0 2,-0.8954 2,-2"/>
  <path class="fil0 str0" d="M168.843 45.093l0 0m0 0l-8.3966 0"/>
  <path class="fil0 str0" d="M178.797 8.7591l0 0m0 0l0 28.7012"/>
  <path class="fil0 str0" d="M172.861 42.0119l0 0m0 0l-4.018 3.0811"/>
  <path class="fil0 str0" d="M149.26 5.6967c-0.5304,0 -1.0391,0.2107 -1.4142,0.5858 -0.3751,0.3751 -0.5858,0.8838 -0.5858,1.4142"/>
  <line class="fil0 str0" x1="189.79" y1="40.1258" x2="186.154" y2= "37.357" />
  <path class="fil0 str0" d="M189.79 40.1258c-0.818,0.2606 -1.3111,1.0927 -1.1468,1.9354 0.1642,0.8426 0.9336,1.4286 1.7896,1.363 0.856,-0.0656 1.5271,-0.7621 1.561,-1.6199"/>
  <path class="fil0 str0" d="M215.432 47.8646l0 0m0 0l-30.4428 0"/>
  <path class="fil0 str0" d="M217.432 7.5934c0,-0.5304 -0.2107,-1.0391 -0.5857,-1.4142 -0.3751,-0.3751 -0.8838,-0.5858 -1.4143,-0.5858"/>
  <path class="fil0 str0" d="M182.989 7.5934l0 0m0 38.2712l0 -38.2712"/>
  <path class="fil0 str0" d="M214.526 8.6557l0 0m-28.372 0l28.372 0"/>
  <path class="fil0 str0" d="M208.591 41.9086c0.0843,0.8238 0.7558,1.4636 1.5827,1.5079 0.8269,0.0442 1.5629,-0.5202 1.7346,-1.3302 0.1718,-0.8101 -0.2719,-1.6246 -1.0456,-1.9197"/>
  <path class="fil0 str0" d="M182.989 45.8646c0,0.5305 0.2108,1.0392 0.5858,1.4142 0.3751,0.3751 0.8838,0.5858 1.4142,0.5858"/>
  <line class="fil0 str0" x1="196.176" y1="44.9897" x2="191.994" y2= "41.8043" />
  <path class="fil0 str0" d="M186.154 8.6557l0 0m0 28.7013l0 -28.7013"/>
  <path class="fil0 str0" d="M217.432 7.5934l0 0m0 0l0 38.2712"/>
  <path class="fil0 str0" d="M215.432 5.5934l0 0m-30.4428 0l30.4428 0"/>
  <path class="fil0 str0" d="M214.526 37.357l0 0m0 0l-3.664 2.8096"/>
  <path class="fil0 str0" d="M215.432 47.8646c1.1046,0 2,-0.8954 2,-2"/>
  <path class="fil0 str0" d="M204.573 44.9897l0 0m0 0l-8.3967 0"/>
  <path class="fil0 str0" d="M214.526 8.6557l0 0m0 0l0 28.7013"/>
  <path class="fil0 str0" d="M208.591 41.9086l0 0m0 0l-4.0179 3.0811"/>
  <path class="fil0 str0" d="M184.989 5.5934c-0.5304,0 -1.0391,0.2107 -1.4142,0.5858 -0.375,0.3751 -0.5858,0.8838 -0.5858,1.4142"/>
  <line class="fil0 str0" x1="118.564" y1="40.1808" x2="114.929" y2= "37.4119" />
  <path class="fil0 str0" d="M143.301 8.7107l0 0m-7.9997 0l7.9997 0"/>
  <path class="fil0 str0" d="M144.207 47.9196l0 0m0 0l-30.4429 0"/>
  <path class="fil0 str0" d="M137.365 41.9635c0.0843,0.8238 0.7558,1.4636 1.5827,1.5079 0.8269,0.0443 1.5629,-0.5201 1.7346,-1.3302 0.1718,-0.8101 -0.2719,-1.6246 -1.0456,-1.9196"/>
  <path class="fil0 str0" d="M122.449 5.6483l0 0m-8.6854 0l8.6854 0"/>
  <path class="fil0 str0" d="M114.929 8.7107l0 0m0 28.7012l0 -28.7012"/>
  <path class="fil0 str0" d="M113.764 5.6483c-0.5304,0 -1.0391,0.2107 -1.4142,0.5858 -0.375,0.3751 -0.5858,0.8838 -0.5858,1.4142"/>
  <path class="fil0 str0" d="M118.564 40.1808c-0.818,0.2606 -1.3111,1.0926 -1.1468,1.9353 0.1642,0.8427 0.9336,1.4287 1.7896,1.363 0.856,-0.0656 1.5271,-0.7621 1.561,-1.6199"/>
  <line class="fil0 str0" x1="124.951" y1="45.0447" x2="120.768" y2= "41.8592" />
  <path class="fil0 str0" d="M146.207 7.6483l0 0m0 0l0 38.2713"/>
  <path class="fil0 str0" d="M135.301 5.6483l0 0m0 0l0 3.0624"/>
  <path class="fil0 str0" d="M146.207 7.6483c0,-0.5304 -0.2108,-1.0391 -0.5858,-1.4142 -0.3751,-0.3751 -0.8838,-0.5858 -1.4142,-0.5858"/>
  <path class="fil0 str0" d="M144.207 5.6483l0 0m-8.9055 0l8.9055 0"/>
  <path class="fil0 str0" d="M143.301 37.4119l0 0m0 0l-3.6639 2.8097"/>
  <path class="fil0 str0" d="M111.764 45.9196c0,0.5304 0.2108,1.0391 0.5858,1.4142 0.3751,0.375 0.8838,0.5858 1.4142,0.5858"/>
  <path class="fil0 str0" d="M122.449 8.7107l0 0m-7.5203 0l7.5203 0"/>
  <path class="fil0 str0" d="M137.365 41.9635l0 0m0 0l-4.0179 3.0812"/>
  <path class="fil0 str0" d="M122.449 5.6483l0 0m0 3.0624l0 -3.0624"/>
  <path class="fil0 str0" d="M133.347 45.0447l0 0m0 0l-8.3967 0"/>
  <path class="fil0 str0" d="M111.764 7.6483l0 0m0 38.2713l0 -38.2713"/>
  <path class="fil0 str0" d="M144.207 47.9196c1.1045,0 1.9999,-0.8955 2,-2"/>
  <path class="fil0 str0" d="M143.301 8.7107l0 0m0 0l0 28.7012"/>
  <path class="fil0 str0" d="M38.5036 6.8842l0 0m0 0l0 38.2953"/>
  <path class="fil0 str0" d="M9.7791 38.1433l0 0m-1.6131 2.7352l1.6131 -2.7352"/>
  <path class="fil0 str0" d="M6.0608 4.8842c-0.5305,0 -1.0392,0.2107 -1.4142,0.5858 -0.3751,0.3751 -0.5858,0.8838 -0.5858,1.4142"/>
  <line class="fil0 str0" x1="9.7791" y1="8.2406" x2="12.9544" y2= "8.27" />
  <line class="fil0 str0" x1="29.8286" y1="38.1433" x2="33.0039" y2= "38.1727" />
  <path class="fil0 str0" d="M29.8286 38.1433l0 0m-1.6131 2.7352l1.6131 -2.7352"/>
  <line class="fil0 str0" x1="9.7282" y1="13.7404" x2="8.166" y2= "10.9758" />
  <path class="fil0 str0" d="M14.5166 40.9373l0 0m0 0l-1.6131 2.7351"/>
  <path class="fil0 str0" d="M34.566 11.0346l0 0m0 0l-1.6131 2.7352"/>
  <line class="fil0 str0" x1="29.7777" y1="43.643" x2="28.2155" y2= "40.8785" />
  <path class="fil0 str0" d="M34.566 40.9373l0 0m0 0l-1.6131 2.7351"/>
  <line class="fil0 str0" x1="33.0039" y1="38.1727" x2="34.566" y2= "40.9373" />
  <line class="fil0 str0" x1="32.9529" y1="13.7698" x2="29.7777" y2= "13.7404" />
  <line class="fil0 str0" x1="29.8286" y1="8.2406" x2="33.0039" y2= "8.27" />
  <line class="fil0 str0" x1="32.9529" y1="43.6724" x2="29.7777" y2= "43.643" />
  <line class="fil0 str0" x1="9.7282" y1="43.643" x2="8.166" y2= "40.8785" />
  <path class="fil0 str0" d="M36.5036 47.1795c1.1045,0 2,-0.8954 2,-2"/>
  <path class="fil0 str0" d="M4.0608 45.1795c0,0.5305 0.2107,1.0392 0.5858,1.4143 0.375,0.375 0.8837,0.5857 1.4142,0.5857"/>
  <path class="fil0 str0" d="M9.7791 8.2406l0 0m-1.6131 2.7352l1.6131 -2.7352"/>
  <path class="fil0 str0" d="M4.0608 6.8842l0 0m0 38.2953l0 -38.2953"/>
  <line class="fil0 str0" x1="29.7777" y1="13.7404" x2="28.2155" y2= "10.9758" />
  <line class="fil0 str0" x1="33.0039" y1="8.27" x2="34.566" y2= "11.0346" />
  <line class="fil0 str0" x1="12.9035" y1="43.6724" x2="9.7282" y2= "43.643" />
  <path class="fil0 str0" d="M29.8286 8.2406l0 0m-1.6131 2.7352l1.6131 -2.7352"/>
  <path class="fil0 str0" d="M38.5036 6.8842c0,-0.5304 -0.2107,-1.0391 -0.5858,-1.4142 -0.3751,-0.3751 -0.8838,-0.5858 -1.4142,-0.5858"/>
  <line class="fil0 str0" x1="12.9544" y1="8.27" x2="14.5166" y2= "11.0346" />
  <path class="fil0 str0" d="M36.5036 47.1795l0 0m0 0l-30.4428 0"/>
  <line class="fil0 str0" x1="12.9035" y1="13.7698" x2="9.7282" y2= "13.7404" />
  <line class="fil0 str0" x1="12.9544" y1="38.1727" x2="14.5166" y2= "40.9373" />
  <path class="fil0 str0" d="M36.5036 4.8842l0 0m-30.4428 0l30.4428 0"/>
  <line class="fil0 str0" x1="9.7791" y1="38.1433" x2="12.9544" y2= "38.1727" />
  <path class="fil0 str0" d="M14.5166 11.0346l0 0m0 0l-1.6131 2.7352"/>
  <path class="fil0 str0" d="M48.4374 11.4641c0,-0.8837 -0.7163,-1.6 -1.6,-1.6 -0.8836,-0.0001 -1.6,0.7163 -1.6,1.5999 0,0.8837 0.7163,1.6 1.6,1.6001 0.8837,0 1.6,-0.7164 1.6,-1.6z"/>
  <path class="fil0 str0" d="M39.6477 7.1718l0 0m0 38.2954l0 -38.2954"/>
  <path class="fil0 str0" d="M74.0905 7.1718c0,-0.5304 -0.2107,-1.0391 -0.5857,-1.4142 -0.3751,-0.3751 -0.8838,-0.5858 -1.4143,-0.5858"/>
  <path class="fil0 str0" d="M72.0905 47.4672c1.1046,0 2,-0.8955 2,-2"/>
  <path class="fil0 str0" d="M68.3974 41.2841c0,-0.8837 -0.7163,-1.6 -1.6,-1.6 -0.8836,-0.0001 -1.6,0.7163 -1.6,1.5999 0,0.8837 0.7163,1.6 1.6,1.6001 0.8837,0 1.6,-0.7164 1.6,-1.6z"/>
  <path class="fil0 str0" d="M68.3974 11.4641c0,-0.8837 -0.7163,-1.6 -1.6,-1.6 -0.8836,-0.0001 -1.6,0.7163 -1.6,1.5999 0,0.8837 0.7163,1.6 1.6,1.6001 0.8837,0 1.6,-0.7164 1.6,-1.6z"/>
  <path class="fil0 str0" d="M39.6477 45.4672c0,0.5304 0.2108,1.0391 0.5858,1.4142 0.3751,0.375 0.8838,0.5858 1.4142,0.5858"/>
  <path class="fil0 str0" d="M72.0905 47.4672l0 0m0 0l-30.4428 0"/>
  <path class="fil0 str0" d="M74.0905 7.1718l0 0m0 0l0 38.2954"/>
  <path class="fil0 str0" d="M41.6477 5.1718c-0.5304,0 -1.0391,0.2107 -1.4142,0.5858 -0.375,0.3751 -0.5858,0.8838 -0.5858,1.4142"/>
  <path class="fil0 str0" d="M48.4374 41.2841c0,-0.8837 -0.7163,-1.6 -1.6,-1.6 -0.8836,-0.0001 -1.6,0.7163 -1.6,1.5999 0,0.8837 0.7163,1.6 1.6,1.6001 0.8837,0 1.6,-0.7164 1.6,-1.6z"/>
  <path class="fil0 str0" d="M72.0905 5.1718l0 0m-30.4428 0l30.4428 0"/>
  <line class="fil0 str1" x1="86.0968" y1="5.7108" x2="98.9488" y2= "5.7108" />
  <line class="fil0 str1" x1="122.449" y1="5.6483" x2="135.301" y2= "5.6483" />
  <g id="_116121392">
   <path id="_116117312" class="fil1" d="M233.945 29.7012l0 0.1499c0,0.3965 0.3736,0.7237 0.7035,0.7999l-0.0537 1.5243c-0.4329,0.229 -1.9993,1.4325 -1.9993,1.9243l0 0.4998c0,0.2594 0.058,0.534 0.1221,0.7276 0.0379,0.1146 0.0559,0.2197 0.1026,0.3223 0.0427,0.094 0.1291,0.2094 0.1508,0.294l0.2751 0.0304 -0.1258 -0.4996c0.1201,-0.1794 0.5718,-0.6602 0.7437,-0.8307 0.24,-0.238 0.4964,-0.5938 0.9807,-0.5938l0.2499 0c0.3209,0 0.6892,0.4068 0.8451,0.6045 0.0774,0.0981 0.6544,0.7655 0.6544,0.82 0,0.0643 -0.075,0.1383 -0.075,0.2499 0,0.0649 0.0962,0.1172 0.125,0.225 0.2151,-0.0575 0.8996,-1.0602 0.8996,-1.4495l0.0082 -0.0511 -0.0831 -0.6737c-0.2058,-0.1378 -0.6175,-0.6473 -0.9393,-0.885 -0.1589,-0.1174 -0.9834,-0.7018 -1.135,-0.7144l0.0129 -0.2508 -0.0879 -1.2987c0.3046,-0.0067 0.7248,-0.472 0.7248,-0.8247l0 -0.2249c0,-0.434 -0.5393,-0.8247 -0.9997,-0.8247l-0.05 0c-0.5179,0 -1.0496,0.4251 -1.0496,0.9497z"/>
   <path id="_116117408" class="fil1" d="M232.921 27.9518l-0.2749 5.3481c0.1161,-0.0778 0.6341,-0.5799 0.7808,-0.7187 0.2124,-0.2008 0.6469,-0.4621 0.9115,-0.6065l0.107 -1.1489c-0.4001,-0.2118 -0.7497,-0.4948 -0.7497,-1.0996 0,-0.6804 0.6772,-1.1996 1.3995,-1.1996l0.05 0c0.5878,0 1.1996,0.5385 1.1996,1.1246l0 0.025c0,0.7689 -0.7753,1.1434 -0.7865,1.1506l0.0867 1.0486 0 0.1c0.4317,0.1005 1.3015,0.8641 1.7118,1.074l-0.2623 -5.3475c-0.7399,0 -1.4381,0.05 -2.1493,0.0499 -0.3532,0 -0.71,0.0462 -1.0504,0.0492 -0.2894,0.0025 -0.6987,0.1446 -0.9738,0.1508z"/>
   <path id="_116117504" class="fil1" d="M233.895 24.7279c0.3289,0.0766 0.7047,0.5006 0.8473,0.7719l-0.2975 0.2527c-0.2316,-0.1551 -0.5931,-0.4998 -0.9746,-0.4998 -0.145,0 -0.4011,0.6908 -0.4676,0.857 -0.0999,0.2496 -0.1822,0.8192 -0.1822,1.1673l-0.0057 0.1507 0.0298 0.2674 0.9755 -0.1182c0.0973,-0.3642 0.8168,-1.0246 1.2996,-1.0246l0.05 0c0.5766,0 1.0452,0.4768 1.1496,0.9246l0.1249 0c0.1419,0 0.6498,0.0219 0.6498,-0.0999l0 -0.3999c0,-0.6198 -0.0831,-1.4633 -0.3249,-1.8243 -0.2342,0.1568 -0.5261,0.4744 -0.8497,0.5498 -0.0268,-0.1005 -0.125,-0.1672 -0.125,-0.25 0,-0.0208 0.2657,-0.3251 0.3003,-0.3745 0.0971,-0.1384 0.1678,-0.2707 0.2496,-0.4252 -0.1263,-0.1886 -0.7407,-0.7747 -1.0247,-0.7747l-0.1249 0c-0.3054,0 -1.1728,0.6603 -1.2996,0.8497z"/>
   <path id="_116117480" class="fil1" d="M233.62 36.3488l0 0.2499c0,0.2008 0.287,1.1103 0.3749,1.1746 0,-0.1711 0.0058,-0.4363 0.1481,-0.4751l-0.0482 0.4002c-0.0348,0.2391 0.1997,0.6093 0.2928,0.7241l0.0321 -0.3993 0.05 0 0 0.25c0,0.436 0.2749,0.5894 0.2749,1.0246l0 0.1499c0,0.1433 -0.0399,0.1788 -0.05,0.2999 0.2453,-0.0655 0.5421,-0.4849 0.6583,-0.7163 0.1767,-0.3521 0.2164,-0.6428 0.2295,-1.1649l0.0869 0.1818c0.1037,-0.0759 0.5498,-1.1749 0.5498,-1.4495l0 -0.1499c0,-0.8388 -0.4931,-1.6615 -1.2496,-1.7244 0.119,0.1623 0.2191,0.1734 0.333,0.4418 0.0789,0.1862 0.1419,0.3781 0.1419,0.6328l-0.0161 0.1863 -0.1089 -0.1363c0,0.2564 0.0963,0.2196 0.0037,0.4785 -0.0367,0.1024 -0.1308,0.3179 -0.1997,0.3704l-0.0772 -0.3549 -0.0267 0.0058c-0.0182,0.2188 -0.0999,0.2307 -0.0999,0.6248 -0.1757,-0.1287 -0.4249,-0.8854 -0.4249,-1.2496 -0.0421,0.0293 -0.05,0.0036 -0.05,0.075l0 0.125 -0.047 -0.0005 -0.028 -0.2244 0 -0.25c0,-0.353 0.2761,-0.5026 0.4249,-0.7247 -0.6079,0.0506 -1.1746,0.9439 -1.1746,1.6244z"/>
   <path id="_116117576" class="fil1" d="M237.344 27.7768l0.1323 2.7073 1.4914 -1.3032 0.3506 0.0454 0 -0.0749c0,-0.382 -0.4712,-0.8575 -0.6808,-1.0687 -0.1219,-0.1228 -0.9258,-0.6557 -1.0936,-0.6557 -0.1079,0 -0.2051,0.2474 -0.1999,0.3498z"/>
   <path id="_116117696" class="fil1" d="M230.721 29.3513l0.3386 -0.0648 1.4358 1.5643c0,-0.436 0.0569,-1.2557 0.1197,-1.6548 0.0346,-0.2207 0.0295,-0.6018 0.0296,-0.845 0.0002,-0.1961 0.0303,-0.1946 0.0035,-0.402 -0.025,-0.1931 -0.0692,-0.2026 -0.1028,-0.3471 -0.6423,0.1496 -1.7627,1.0086 -1.8244,1.7494z"/>
   <path id="_116117768" class="fil1" d="M238.309 29.9891l0.5596 0.8367c-0.2162,0.0577 -0.3999,0.4532 -0.3999,0.7497 0,0.1675 0.1259,0.4585 0.2249,0.5248 0.0746,-0.0394 0.5998,-0.3299 0.5998,-0.3748 0,-0.0525 -0.0999,-0.1655 -0.0999,-0.275 0,-0.3055 0.194,-0.5167 0.3702,-0.6544 0.1413,-0.1105 0.4103,-0.3952 0.6294,-0.3952l0.125 0c0.3651,0 0.4461,0.3481 0.5998,0.5248 0.0252,-0.1084 0.1999,-0.4306 0.1999,-0.4998 0,-0.2258 -0.3626,-0.5998 -0.6748,-0.5998l-0.0999 0c-0.3528,0 -0.5835,0.2301 -0.7941,0.3713l-0.5122 -0.8044 -0.7278 0.5961z"/>
   <path id="_116117840" class="fil1" d="M230.396 30.251l-0.2499 -0.025 -0.3998 0c-0.5259,0 -0.9747,0.4654 -0.9742,1.0055l0.4244 -0.0309c0.0515,-0.1931 0.4109,-0.5498 0.6747,-0.5498l0.075 0c0.3812,0 1.0996,0.3208 1.0996,0.6748l0 0.1999c0,0.3051 -0.2569,0.5652 -0.2999,0.7498l0.4249 0c0.1485,0 0.3998,-0.4937 0.3998,-0.6998l0 -0.075c0,-0.3434 -0.1616,-0.5433 -0.2999,-0.7497 0.0384,-0.0257 0.4249,-0.4821 0.4249,-0.4998 0,-0.0683 -0.5725,-0.6498 -0.5748,-0.6498 -0.0899,0 -0.6073,0.5711 -0.7248,0.6498z"/>
   <path id="_116117912" class="fil1" d="M234.895 26.6802l0.0246 0.2719 -0.0005 0.2719 -0.2245 0.028 0 -0.0999c0,-0.1487 -0.0469,-0.1882 -0.05,-0.3249 -0.0637,0.017 -0.1749,0.0725 -0.1749,0.1499l-0.0011 0.3464 -0.1748 0.0536 -0.0346 -0.2375 -0.1144 0.1124 -0.0003 0.1994 -0.1749 0.1191 2.2113 -0.1117 -0.1367 -0.0818c0,-0.2727 -0.0051,-0.3111 -0.175,-0.4249l0 0.3499c-0.1741,-0.0406 -0.201,0.0213 -0.2007,-0.1742 0.0003,-0.1445 -0.0242,-0.1906 -0.0256,-0.347l-0.2235 -0.0786 0 0.4998 -0.2 0c0,-0.0735 -0.052,-0.557 -0.1007,-0.5553l-0.2237 0.0335z"/>
  </g>
 </g>
</svg>
